<?xml version="1.0" standalone="no"?>
<!DOCTYPE svg PUBLIC "-//W3C//DTD SVG 20010904//EN"
 "http://www.w3.org/TR/2001/REC-SVG-20010904/DTD/svg10.dtd">
<svg version="1.0" xmlns="http://www.w3.org/2000/svg"
 width="60.000000pt" height="66.000000pt" viewBox="0 0 60.000000 66.000000"
 preserveAspectRatio="xMidYMid meet">

<g transform="translate(0.000000,66.000000) scale(0.100000,-0.100000)"
fill="#000000" stroke="none">
<path d="M100 591 c0 -26 71 -72 93 -59 25 14 21 25 -20 53 -45 30 -73 32 -73
6z"/>
<path d="M301 483 c-5 -10 -22 -17 -38 -18 -21 0 -29 -5 -31 -22 -3 -18 -8
-21 -31 -17 -19 4 -39 -2 -67 -20 -82 -54 -92 -77 -41 -96 17 -6 39 -15 47
-20 22 -11 52 13 44 34 -5 12 0 16 23 16 36 0 46 9 31 27 -6 7 -8 17 -4 21 4
4 17 -5 28 -21 11 -15 28 -27 39 -27 10 0 19 -4 19 -10 0 -5 -11 -10 -25 -10
-34 0 -31 -12 6 -29 23 -10 34 -10 42 -2 19 19 40 13 34 -9 -4 -14 0 -20 12
-20 25 0 61 29 61 49 0 18 -29 51 -45 51 -5 0 -16 7 -26 16 -10 9 -42 19 -71
23 -56 6 -65 19 -29 37 32 16 61 46 55 55 -8 14 -22 10 -33 -8z"/>
<path d="M544 259 c-10 -11 -30 -28 -45 -36 -17 -10 -25 -22 -22 -34 3 -11 -3
-22 -16 -28 -22 -12 -30 -61 -10 -61 6 0 36 13 66 30 30 16 61 30 69 30 23 0
19 96 -5 109 -14 8 -23 6 -37 -10z"/>
<path d="M130 144 c0 -19 63 -46 98 -42 16 2 28 10 30 21 3 14 -4 17 -47 17
-27 0 -53 5 -56 10 -9 15 -25 12 -25 -6z"/>
</g>
</svg>
